<svg xmlns="http://www.w3.org/2000/svg" viewBox="0 0 100 100" id="pentaho-business-analytics-blk">
<path d="M2685.6,1234.7v-2c0-2.8-5-4-9.7-4s-9.7,1.3-9.7,4v2c0,1.8,0.7,3.6,2,4.9l5,4.9c0.3,0.3,0.4,0.6,0.4,1v6.4 c0,0.4,0.2,0.7,0.6,0.8l2.9,0.9c0.5,0.1,1-0.2,1-0.8v-7.2c0-0.4,0.2-0.7,0.4-1l5.1-5C2684.8,1238.3,2685.6,1236.5,2685.6,1234.7z M2675.8,1234.6c-4.8,0-7.4-1.3-7.5-1.8l0,0c0.1-0.5,2.7-1.8,7.5-1.8s7.3,1.3,7.5,1.8C2683.2,1233.3,2680.7,1234.6,2675.8,1234.6z"></path><path d="M2680.8,1244.9c-0.6,0-1,0.4-1,1s0.4,1,1,1h4.3c0.6,0,1-0.4,1-1s-0.4-1-1-1H2680.8z"></path><path d="M2685.2,1248.3h-4.3c-0.6,0-1,0.4-1,1s0.4,1,1,1h4.3c0.6,0,1-0.4,1-1C2686.2,1248.7,2685.7,1248.3,2685.2,1248.3z"></path><path d="M2685.2,1251.6h-4.3c-0.6,0-1,0.4-1,1s0.4,1,1,1h4.3c0.6,0,1-0.4,1-1C2686.2,1252.1,2685.7,1251.6,2685.2,1251.6z"></path><path d="M-2492.9-1152.7h-53.1c-1.5,0-2.8,1.2-2.8,2.8v21.1h5.6v-18.3h47.6v40.7h-47.6v-5.6c-0.3,0.1-0.6,0.1-0.9,0.1h-4.7v8.3 c0,1.5,1.2,2.8,2.8,2.8h23.8v8.1l-9.9,9.9c-1.1,1.1-1.1,2.8,0,3.9s2.8,1.1,3.9,0l8.7-8.7l8.7,8.7c0.5,0.5,1.3,0.8,2,0.8 s1.4-0.3,2-0.8c1.1-1.1,1.1-2.8,0-3.9l-9.9-9.9v-8.1h23.8c1.5,0,2.8-1.3,2.8-2.8v-46.3 C-2490.1-1151.4-2491.3-1152.7-2492.9-1152.7z"></path><path d="M-2542.7-1117.6l1.7-4.5c0.4-1-0.3-2-1.4-2h-31.6c-5,0-9.3,3.8-9.8,8.8l-1.3,12c-0.1,1.2,0.7,2.3,1.8,2.5 c1.3,0.3,3,0.5,4.8,0.7l1.1,19.1c0.1,1.6,1.4,2.9,3,2.9h9.2c1.6,0,2.9-1.3,3-2.9l1.6-32.8c0-1.6,1.4-2.9,3-2.9h13.4 C-2543.5-1116.7-2542.9-1117.1-2542.7-1117.6z"></path><circle cx="-2569.7" cy="-1136.9" r="10"></circle><path d="M-2533.2-1135.6h27.4c1.5,0,2.8-1.2,2.8-2.8s-1.2-2.8-2.8-2.8h-27.4c-1.5,0-2.8,1.2-2.8,2.8S-2534.7-1135.6-2533.2-1135.6 z"></path><path d="M-2533.2-1124h27.4c1.5,0,2.8-1.2,2.8-2.8s-1.2-2.8-2.8-2.8h-27.4c-1.5,0-2.8,1.2-2.8,2.8S-2534.7-1124-2533.2-1124z"></path><path d="M-2533.2-1112.4h27.4c1.5,0,2.8-1.2,2.8-2.8c0-1.5-1.2-2.8-2.8-2.8h-27.4c-1.5,0-2.8,1.2-2.8,2.8 C-2535.9-1113.7-2534.7-1112.4-2533.2-1112.4z"></path><path d="M80.6,34c-1.5,4.7-5.8,8.1-11,8.1c-6.4,0-11.5-5.2-11.5-11.5S63.2,19,69.6,19v11.5L80.6,34z M82.4,32.7 c0.3-1.1,0.5-2.2,0.5-3.4c0-6.4-5.2-11.5-11.5-11.5v11.5L82.4,32.7z M94.6,61.9v10.7h0c-0.1,3-2.6,5.5-5.7,5.5H59.9 c0.1,1.3,0.8,7.1,9.5,8.2H69c1.4,0,2.5,1.1,2.5,2.5s-1.1,2.5-2.5,2.5H30.9c-1.4,0-2.5-1.1-2.5-2.5s1.1-2.5,2.5-2.5h-0.3 c8.7-1.1,9.4-6.9,9.5-8.2H11.1c-3.1,0-5.6-2.4-5.7-5.5h0v-0.1c0,0,0-0.1,0-0.1v-0.5c0,0,0-0.1,0-0.1v-8.7c0,0,0-0.1,0-0.1V15.2 c0-3.6,2.9-6.5,6.5-6.5h76.2c3.6,0,6.5,2.9,6.5,6.5L94.6,61.9L94.6,61.9z M53.2,71.7c0-1.8-1.4-3.2-3.2-3.2s-3.2,1.4-3.2,3.2 s1.4,3.2,3.2,3.2S53.2,73.4,53.2,71.7z M89.2,15.2c0-0.6-0.5-1.1-1.1-1.1H11.9c-0.6,0-1.1,0.5-1.1,1.1V63c0,0.6,0.5,1.1,1.1,1.1 h76.2c0.6,0,1.1-0.5,1.1-1.1V15.2z M21.2,45.5c0-0.5-0.4-0.9-0.9-0.9h-4.7c-0.5,0-0.9,0.4-0.9,0.9v13.7c0,0.5,0.4,0.9,0.9,0.9h4.7 c0.5,0,0.9-0.4,0.9-0.9V45.5z M31.3,35.5c0-0.5-0.4-0.9-0.9-0.9h-4.7c-0.5,0-0.9,0.4-0.9,0.9v23.6c0,0.5,0.4,0.9,0.9,0.9h4.7 c0.5,0,0.9-0.4,0.9-0.9V35.5z M41.3,25c0-0.5-0.4-0.9-0.9-0.9h-4.7c-0.5,0-0.9,0.4-0.9,0.9v34.2c0,0.5,0.4,0.9,0.9,0.9h4.7 c0.5,0,0.9-0.4,0.9-0.9V25z M51.4,34.1c0-0.5-0.4-0.9-0.9-0.9h-4.7c-0.5,0-0.9,0.4-0.9,0.9v25c0,0.5,0.4,0.9,0.9,0.9h4.7 c0.5,0,0.9-0.4,0.9-0.9V34.1z M83.1,46H57v2.7h26.1V46z M83.1,51.4H57V54h26.1V51.4z M75.6,56.8H57v2.7h18.6V56.8z"></path>
</svg>