<?xml version="1.0" encoding="UTF-8"?>
<svg xmlns="http://www.w3.org/2000/svg" xmlns:xlink="http://www.w3.org/1999/xlink" width="25pt" height="25pt" viewBox="0 0 25 25" version="1.1">
<g id="surface1">
<path style=" stroke:none;fill-rule:nonzero;fill:rgb(0%,0%,0%);fill-opacity:1;" d="M 20.148438 8.5 C 19.773438 9.675781 18.699219 10.523438 17.398438 10.523438 C 15.800781 10.523438 14.523438 9.226562 14.523438 7.648438 C 14.523438 6.074219 15.800781 4.75 17.398438 4.75 L 17.398438 7.625 Z M 20.601562 8.175781 C 20.675781 7.898438 20.726562 7.625 20.726562 7.324219 C 20.726562 5.726562 19.425781 4.449219 17.851562 4.449219 L 17.851562 7.324219 Z M 23.648438 15.476562 L 23.648438 18.148438 C 23.625 18.898438 23 19.523438 22.226562 19.523438 L 14.976562 19.523438 C 15 19.851562 15.175781 21.300781 17.351562 21.574219 L 17.25 21.574219 C 17.601562 21.574219 17.875 21.851562 17.875 22.199219 C 17.875 22.550781 17.601562 22.824219 17.25 22.824219 L 7.726562 22.824219 C 7.375 22.824219 7.101562 22.550781 7.101562 22.199219 C 7.101562 21.851562 7.375 21.574219 7.726562 21.574219 L 7.648438 21.574219 C 9.824219 21.300781 10 19.851562 10.023438 19.523438 L 2.773438 19.523438 C 2 19.523438 1.375 18.925781 1.351562 18.148438 L 1.351562 18.125 C 1.351562 18.125 1.351562 18.101562 1.351562 18.101562 L 1.351562 17.976562 C 1.351562 17.976562 1.351562 17.949219 1.351562 17.949219 L 1.351562 15.773438 C 1.351562 15.773438 1.351562 15.75 1.351562 15.75 L 1.351562 3.800781 C 1.351562 2.898438 2.074219 2.175781 2.976562 2.175781 L 22.023438 2.175781 C 22.925781 2.175781 23.648438 2.898438 23.648438 3.800781 Z M 13.300781 17.925781 C 13.300781 17.476562 12.949219 17.125 12.5 17.125 C 12.050781 17.125 11.699219 17.476562 11.699219 17.925781 C 11.699219 18.375 12.050781 18.726562 12.5 18.726562 C 12.949219 18.726562 13.300781 18.351562 13.300781 17.925781 Z M 22.300781 3.800781 C 22.300781 3.648438 22.175781 3.523438 22.023438 3.523438 L 2.976562 3.523438 C 2.824219 3.523438 2.699219 3.648438 2.699219 3.800781 L 2.699219 15.75 C 2.699219 15.898438 2.824219 16.023438 2.976562 16.023438 L 22.023438 16.023438 C 22.175781 16.023438 22.300781 15.898438 22.300781 15.75 Z M 5.300781 11.375 C 5.300781 11.25 5.199219 11.148438 5.074219 11.148438 L 3.898438 11.148438 C 3.773438 11.148438 3.675781 11.25 3.675781 11.375 L 3.675781 14.800781 C 3.675781 14.925781 3.773438 15.023438 3.898438 15.023438 L 5.074219 15.023438 C 5.199219 15.023438 5.300781 14.925781 5.300781 14.800781 Z M 7.824219 8.875 C 7.824219 8.75 7.726562 8.648438 7.601562 8.648438 L 6.425781 8.648438 C 6.300781 8.648438 6.199219 8.75 6.199219 8.875 L 6.199219 14.773438 C 6.199219 14.898438 6.300781 15 6.425781 15 L 7.601562 15 C 7.726562 15 7.824219 14.898438 7.824219 14.773438 Z M 10.324219 6.25 C 10.324219 6.125 10.226562 6.023438 10.101562 6.023438 L 8.925781 6.023438 C 8.800781 6.023438 8.699219 6.125 8.699219 6.25 L 8.699219 14.800781 C 8.699219 14.925781 8.800781 15.023438 8.925781 15.023438 L 10.101562 15.023438 C 10.226562 15.023438 10.324219 14.925781 10.324219 14.800781 Z M 12.851562 8.523438 C 12.851562 8.398438 12.75 8.300781 12.625 8.300781 L 11.449219 8.300781 C 11.324219 8.300781 11.226562 8.398438 11.226562 8.523438 L 11.226562 14.773438 C 11.226562 14.898438 11.324219 15 11.449219 15 L 12.625 15 C 12.75 15 12.851562 14.898438 12.851562 14.773438 Z M 20.773438 11.5 L 14.25 11.5 L 14.25 12.175781 L 20.773438 12.175781 Z M 20.773438 12.851562 L 14.25 12.851562 L 14.25 13.5 L 20.773438 13.5 Z M 18.898438 14.199219 L 14.25 14.199219 L 14.25 14.875 L 18.898438 14.875 Z M 18.898438 14.199219 "/>
</g>
</svg>
